<mxfile host="Electron" modified="2023-08-18T06:43:14.899Z" agent="Mozilla/5.0 (Windows NT 10.0; Win64; x64) AppleWebKit/537.36 (KHTML, like Gecko) draw.io/21.6.5 Chrome/114.0.5735.243 Electron/25.3.1 Safari/537.36" etag="wcbiQcfHdGqySYuwOiYs" version="21.6.5" type="device">
  <diagram name="第 1 页" id="LPM2Vj5LjhQS8KYkLOUM">
    <mxGraphModel dx="3850" dy="1640" grid="1" gridSize="10" guides="1" tooltips="1" connect="1" arrows="1" fold="1" page="1" pageScale="1" pageWidth="827" pageHeight="1169" math="0" shadow="0">
      <root>
        <mxCell id="0" />
        <mxCell id="1" parent="0" />
        <mxCell id="IUfaZ9c9m-CvbuUwdVSi-1" value="" style="swimlane;horizontal=0;whiteSpace=wrap;html=1;startSize=360;direction=west;container=0;dashed=1;fillColor=#bac8d3;strokeColor=#23445d;fillStyle=auto;" vertex="1" parent="1">
          <mxGeometry x="-1270" y="440" width="710" height="340" as="geometry">
            <mxRectangle x="-830" y="110" width="40" height="150" as="alternateBounds" />
          </mxGeometry>
        </mxCell>
        <mxCell id="IUfaZ9c9m-CvbuUwdVSi-2" value="&lt;font style=&quot;font-size: 12px;&quot;&gt;Schedule&lt;/font&gt;" style="edgeLabel;resizable=0;html=1;align=center;verticalAlign=middle;labelBackgroundColor=none;fontStyle=1" connectable="0" vertex="1" parent="IUfaZ9c9m-CvbuUwdVSi-1">
          <mxGeometry x="318.9959259259256" y="133.0000000000001" as="geometry" />
        </mxCell>
        <mxCell id="IUfaZ9c9m-CvbuUwdVSi-3" value="&lt;font style=&quot;font-size: 12px;&quot;&gt;Yield&lt;/font&gt;" style="edgeLabel;resizable=0;html=1;align=center;verticalAlign=middle;labelBackgroundColor=none;fontStyle=1" connectable="0" vertex="1" parent="IUfaZ9c9m-CvbuUwdVSi-1">
          <mxGeometry x="370.001895629528" y="115.9996439230519" as="geometry" />
        </mxCell>
        <mxCell id="IUfaZ9c9m-CvbuUwdVSi-4" value="&lt;font style=&quot;font-size: 12px;&quot;&gt;Intertupt&lt;/font&gt;" style="edgeLabel;resizable=0;html=1;align=center;verticalAlign=middle;labelBackgroundColor=none;fontStyle=1" connectable="0" vertex="1" parent="IUfaZ9c9m-CvbuUwdVSi-1">
          <mxGeometry x="519.9959259259256" y="140.0000000000001" as="geometry" />
        </mxCell>
        <mxCell id="IUfaZ9c9m-CvbuUwdVSi-5" value="&lt;font style=&quot;font-size: 12px;&quot;&gt;Schedule&lt;/font&gt;" style="edgeLabel;resizable=0;html=1;align=center;verticalAlign=middle;labelBackgroundColor=none;fontStyle=1" connectable="0" vertex="1" parent="IUfaZ9c9m-CvbuUwdVSi-1">
          <mxGeometry x="489.9959259259256" y="110.00000000000011" as="geometry" />
        </mxCell>
        <mxCell id="IUfaZ9c9m-CvbuUwdVSi-6" value="&lt;font style=&quot;font-size: 12px;&quot;&gt;Wake Up&lt;/font&gt;" style="edgeLabel;resizable=0;html=1;align=center;verticalAlign=middle;labelBackgroundColor=none;fontStyle=1" connectable="0" vertex="1" parent="IUfaZ9c9m-CvbuUwdVSi-1">
          <mxGeometry x="650.0029797097272" y="169.99989913986224" as="geometry" />
        </mxCell>
        <mxCell id="IUfaZ9c9m-CvbuUwdVSi-7" value="&lt;font style=&quot;font-size: 12px;&quot;&gt;Exception&lt;/font&gt;" style="edgeLabel;resizable=0;html=1;align=center;verticalAlign=middle;labelBackgroundColor=none;fontStyle=1" connectable="0" vertex="1" parent="IUfaZ9c9m-CvbuUwdVSi-1">
          <mxGeometry x="505.9959259259256" y="210.0000000000001" as="geometry" />
        </mxCell>
        <mxCell id="IUfaZ9c9m-CvbuUwdVSi-8" value="&lt;span style=&quot;font-size: 12px;&quot;&gt;Wait&lt;/span&gt;" style="edgeLabel;resizable=0;html=1;align=center;verticalAlign=middle;labelBackgroundColor=none;fontStyle=1" connectable="0" vertex="1" parent="IUfaZ9c9m-CvbuUwdVSi-1">
          <mxGeometry x="223.00297970972724" y="213.99989913986224" as="geometry" />
        </mxCell>
        <mxCell id="IUfaZ9c9m-CvbuUwdVSi-9" value="&lt;font style=&quot;font-size: 12px;&quot;&gt;Wake Up&lt;/font&gt;" style="edgeLabel;resizable=0;html=1;align=center;verticalAlign=middle;labelBackgroundColor=none;fontStyle=1" connectable="0" vertex="1" parent="IUfaZ9c9m-CvbuUwdVSi-1">
          <mxGeometry x="123.00297970972724" y="169.99989913986224" as="geometry" />
        </mxCell>
        <mxCell id="IUfaZ9c9m-CvbuUwdVSi-10" value="&lt;span style=&quot;color: rgb(0, 0, 0); font-family: Helvetica; font-style: normal; font-variant-ligatures: normal; font-variant-caps: normal; letter-spacing: normal; orphans: 2; text-align: center; text-indent: 0px; text-transform: none; widows: 2; word-spacing: 0px; -webkit-text-stroke-width: 0px; background-color: rgb(251, 251, 251); text-decoration-thickness: initial; text-decoration-style: initial; text-decoration-color: initial; float: none; display: inline !important;&quot;&gt;&lt;font style=&quot;font-size: 24px;&quot;&gt;Stackless&lt;/font&gt;&lt;/span&gt;" style="text;whiteSpace=wrap;html=1;fontStyle=1" vertex="1" parent="IUfaZ9c9m-CvbuUwdVSi-1">
          <mxGeometry x="110" width="110" height="40" as="geometry" />
        </mxCell>
        <mxCell id="IUfaZ9c9m-CvbuUwdVSi-11" value="&lt;span style=&quot;font-family: Helvetica; font-style: normal; font-variant-ligatures: normal; font-variant-caps: normal; letter-spacing: normal; orphans: 2; text-align: center; text-indent: 0px; text-transform: none; widows: 2; word-spacing: 0px; -webkit-text-stroke-width: 0px; text-decoration-thickness: initial; text-decoration-style: initial; text-decoration-color: initial; float: none; display: inline !important;&quot;&gt;&lt;font style=&quot;font-size: 24px;&quot;&gt;Stackful&lt;/font&gt;&lt;/span&gt;" style="text;whiteSpace=wrap;html=1;fontStyle=1;labelBackgroundColor=none;" vertex="1" parent="IUfaZ9c9m-CvbuUwdVSi-1">
          <mxGeometry x="465" width="110" height="40" as="geometry" />
        </mxCell>
        <mxCell id="IUfaZ9c9m-CvbuUwdVSi-12" value="&lt;font style=&quot;font-size: 20px;&quot;&gt;Create&lt;/font&gt;" style="ellipse;whiteSpace=wrap;html=1;aspect=fixed;strokeWidth=1;shadow=1;fontStyle=1" vertex="1" parent="1">
          <mxGeometry x="-1250" y="466" width="100" height="100" as="geometry" />
        </mxCell>
        <mxCell id="IUfaZ9c9m-CvbuUwdVSi-13" value="&lt;span style=&quot;font-size: 20px;&quot;&gt;Exit&lt;/span&gt;" style="ellipse;whiteSpace=wrap;html=1;aspect=fixed;strokeWidth=1;shadow=1;fontStyle=1" vertex="1" parent="1">
          <mxGeometry x="-1030" y="660" width="100" height="100" as="geometry" />
        </mxCell>
        <mxCell id="IUfaZ9c9m-CvbuUwdVSi-14" value="&lt;font style=&quot;font-size: 20px;&quot;&gt;Running&lt;/font&gt;" style="ellipse;whiteSpace=wrap;html=1;aspect=fixed;fillColor=#CC99FF;strokeColor=#000000;strokeWidth=1;shadow=1;fontColor=#000000;fontStyle=1" vertex="1" parent="1">
          <mxGeometry x="-910" y="566" width="100" height="100" as="geometry" />
        </mxCell>
        <mxCell id="IUfaZ9c9m-CvbuUwdVSi-15" value="&lt;font style=&quot;font-size: 20px;&quot;&gt;Blocked&lt;/font&gt;" style="ellipse;whiteSpace=wrap;html=1;aspect=fixed;fillColor=#AD5555;strokeColor=#000000;strokeWidth=1;shadow=1;fontColor=#000000;fontStyle=1" vertex="1" parent="1">
          <mxGeometry x="-1260" y="660" width="100" height="100" as="geometry" />
        </mxCell>
        <mxCell id="IUfaZ9c9m-CvbuUwdVSi-16" value="&lt;font style=&quot;font-size: 20px;&quot;&gt;Ready&lt;/font&gt;" style="ellipse;whiteSpace=wrap;html=1;aspect=fixed;fillColor=#3399FF;strokeColor=#000000;strokeWidth=1;shadow=1;fontColor=#000000;fontStyle=1" vertex="1" parent="1">
          <mxGeometry x="-1050" y="466" width="100" height="100" as="geometry" />
        </mxCell>
        <mxCell id="IUfaZ9c9m-CvbuUwdVSi-17" value="&lt;font style=&quot;font-size: 20px;&quot;&gt;Ready&lt;br&gt;&lt;/font&gt;" style="ellipse;whiteSpace=wrap;html=1;aspect=fixed;fillColor=#3399FF;strokeColor=#000000;strokeWidth=1;shadow=1;fontColor=#000000;fontStyle=1" vertex="1" parent="1">
          <mxGeometry x="-700" y="466" width="100" height="100" as="geometry" />
        </mxCell>
        <mxCell id="IUfaZ9c9m-CvbuUwdVSi-18" value="&lt;font style=&quot;font-size: 20px;&quot;&gt;Blocked&lt;br&gt;&lt;/font&gt;" style="ellipse;whiteSpace=wrap;html=1;aspect=fixed;fillColor=#AD5555;strokeColor=#000000;strokeWidth=1;shadow=1;fontColor=#000000;fontStyle=1" vertex="1" parent="1">
          <mxGeometry x="-700" y="640" width="100" height="100" as="geometry" />
        </mxCell>
        <mxCell id="IUfaZ9c9m-CvbuUwdVSi-19" value="" style="endArrow=classic;html=1;rounded=0;entryX=1.038;entryY=0.491;entryDx=0;entryDy=0;entryPerimeter=0;exitX=-0.028;exitY=0.514;exitDx=0;exitDy=0;exitPerimeter=0;" edge="1" parent="1" source="IUfaZ9c9m-CvbuUwdVSi-14" target="IUfaZ9c9m-CvbuUwdVSi-15">
          <mxGeometry width="50" height="50" relative="1" as="geometry">
            <mxPoint x="-930" y="592" as="sourcePoint" />
            <mxPoint x="-1160" y="730" as="targetPoint" />
          </mxGeometry>
        </mxCell>
        <mxCell id="IUfaZ9c9m-CvbuUwdVSi-20" value="" style="endArrow=classic;html=1;rounded=0;exitX=1.03;exitY=0.498;exitDx=0;exitDy=0;exitPerimeter=0;entryX=0;entryY=0.5;entryDx=0;entryDy=0;" edge="1" parent="1" source="IUfaZ9c9m-CvbuUwdVSi-12" target="IUfaZ9c9m-CvbuUwdVSi-16">
          <mxGeometry width="50" height="50" relative="1" as="geometry">
            <mxPoint x="-1160" y="486" as="sourcePoint" />
            <mxPoint x="-1100" y="486" as="targetPoint" />
          </mxGeometry>
        </mxCell>
        <mxCell id="IUfaZ9c9m-CvbuUwdVSi-21" value="" style="endArrow=classic;html=1;rounded=0;exitX=0.9;exitY=0.84;exitDx=0;exitDy=0;exitPerimeter=0;entryX=0.1;entryY=0.14;entryDx=0;entryDy=0;entryPerimeter=0;" edge="1" parent="1" source="IUfaZ9c9m-CvbuUwdVSi-16" target="IUfaZ9c9m-CvbuUwdVSi-14">
          <mxGeometry width="50" height="50" relative="1" as="geometry">
            <mxPoint x="-1020" y="580" as="sourcePoint" />
            <mxPoint x="-910" y="580" as="targetPoint" />
          </mxGeometry>
        </mxCell>
        <mxCell id="IUfaZ9c9m-CvbuUwdVSi-22" value="" style="endArrow=classic;html=1;rounded=0;exitX=0.184;exitY=0.076;exitDx=0;exitDy=0;exitPerimeter=0;entryX=0.963;entryY=0.763;entryDx=0;entryDy=0;entryPerimeter=0;" edge="1" parent="1" source="IUfaZ9c9m-CvbuUwdVSi-14" target="IUfaZ9c9m-CvbuUwdVSi-16">
          <mxGeometry width="50" height="50" relative="1" as="geometry">
            <mxPoint x="-910" y="560" as="sourcePoint" />
            <mxPoint x="-970" y="520" as="targetPoint" />
          </mxGeometry>
        </mxCell>
        <mxCell id="IUfaZ9c9m-CvbuUwdVSi-23" value="" style="endArrow=classic;html=1;rounded=0;entryX=0.047;entryY=0.785;entryDx=0;entryDy=0;entryPerimeter=0;exitX=0.963;exitY=0.218;exitDx=0;exitDy=0;exitPerimeter=0;" edge="1" parent="1" source="IUfaZ9c9m-CvbuUwdVSi-14" target="IUfaZ9c9m-CvbuUwdVSi-17">
          <mxGeometry width="50" height="50" relative="1" as="geometry">
            <mxPoint x="-820" y="566" as="sourcePoint" />
            <mxPoint x="-770" y="516" as="targetPoint" />
          </mxGeometry>
        </mxCell>
        <mxCell id="IUfaZ9c9m-CvbuUwdVSi-24" value="" style="endArrow=classic;html=1;rounded=0;entryX=-0.028;entryY=0.503;entryDx=0;entryDy=0;entryPerimeter=0;exitX=0.922;exitY=0.843;exitDx=0;exitDy=0;exitPerimeter=0;" edge="1" parent="1" source="IUfaZ9c9m-CvbuUwdVSi-14" target="IUfaZ9c9m-CvbuUwdVSi-18">
          <mxGeometry width="50" height="50" relative="1" as="geometry">
            <mxPoint x="-800" y="628" as="sourcePoint" />
            <mxPoint x="-710" y="730" as="targetPoint" />
          </mxGeometry>
        </mxCell>
        <mxCell id="IUfaZ9c9m-CvbuUwdVSi-25" value="" style="endArrow=classic;html=1;rounded=0;exitX=0.836;exitY=0.089;exitDx=0;exitDy=0;exitPerimeter=0;" edge="1" parent="1" source="IUfaZ9c9m-CvbuUwdVSi-15" target="IUfaZ9c9m-CvbuUwdVSi-16">
          <mxGeometry width="50" height="50" relative="1" as="geometry">
            <mxPoint x="-1070" y="520" as="sourcePoint" />
            <mxPoint x="-1240" y="610" as="targetPoint" />
          </mxGeometry>
        </mxCell>
        <mxCell id="IUfaZ9c9m-CvbuUwdVSi-26" value="" style="endArrow=classic;html=1;rounded=0;entryX=0.9;entryY=0.14;entryDx=0;entryDy=0;entryPerimeter=0;exitX=0.001;exitY=0.702;exitDx=0;exitDy=0;exitPerimeter=0;" edge="1" parent="1" source="IUfaZ9c9m-CvbuUwdVSi-17" target="IUfaZ9c9m-CvbuUwdVSi-14">
          <mxGeometry width="50" height="50" relative="1" as="geometry">
            <mxPoint x="-714" y="502" as="sourcePoint" />
            <mxPoint x="-764" y="547" as="targetPoint" />
          </mxGeometry>
        </mxCell>
        <mxCell id="IUfaZ9c9m-CvbuUwdVSi-27" value="" style="endArrow=classic;html=1;rounded=0;exitX=0.501;exitY=-0.03;exitDx=0;exitDy=0;exitPerimeter=0;entryX=0.501;entryY=1.039;entryDx=0;entryDy=0;entryPerimeter=0;" edge="1" parent="1" source="IUfaZ9c9m-CvbuUwdVSi-18" target="IUfaZ9c9m-CvbuUwdVSi-17">
          <mxGeometry width="50" height="50" relative="1" as="geometry">
            <mxPoint x="-650" y="630" as="sourcePoint" />
            <mxPoint x="-650" y="540" as="targetPoint" />
          </mxGeometry>
        </mxCell>
        <mxCell id="IUfaZ9c9m-CvbuUwdVSi-28" value="" style="endArrow=classic;html=1;rounded=0;exitX=0.142;exitY=0.909;exitDx=0;exitDy=0;exitPerimeter=0;entryX=0.955;entryY=0.228;entryDx=0;entryDy=0;entryPerimeter=0;" edge="1" parent="1" source="IUfaZ9c9m-CvbuUwdVSi-14" target="IUfaZ9c9m-CvbuUwdVSi-13">
          <mxGeometry width="50" height="50" relative="1" as="geometry">
            <mxPoint x="-905.3553390593274" y="661.3553390593274" as="sourcePoint" />
            <mxPoint x="-970" y="732" as="targetPoint" />
          </mxGeometry>
        </mxCell>
      </root>
    </mxGraphModel>
  </diagram>
</mxfile>
